<svg width="56" height="55" viewBox="0 0 56 55" fill="none" xmlns="http://www.w3.org/2000/svg">
<path d="M27.7935 30.8343L16.6275 42.0003C16.2097 42.4181 15.678 42.627 15.0323 42.627C14.3867 42.627 13.855 42.4181 13.4372 42.0003C13.0194 41.5825 12.8105 41.0508 12.8105 40.4052C12.8105 39.7595 13.0194 39.2278 13.4372 38.81L24.6032 27.644L13.4372 16.478C13.0194 16.0603 12.8105 15.5286 12.8105 14.8829C12.8105 14.2373 13.0194 13.7055 13.4372 13.2878C13.855 12.87 14.3867 12.6611 15.0323 12.6611C15.678 12.6611 16.2097 12.87 16.6275 13.2878L27.7935 24.4537L38.9595 13.2878C39.3772 12.87 39.9089 12.6611 40.5546 12.6611C41.2003 12.6611 41.732 12.87 42.1497 13.2878C42.5675 13.7055 42.7764 14.2373 42.7764 14.8829C42.7764 15.5286 42.5675 16.0603 42.1497 16.478L30.9838 27.644L42.1497 38.81C42.5675 39.2278 42.7764 39.7595 42.7764 40.4052C42.7764 41.0508 42.5675 41.5825 42.1497 42.0003C41.732 42.4181 41.2003 42.627 40.5546 42.627C39.9089 42.627 39.3772 42.4181 38.9595 42.0003L27.7935 30.8343Z" fill="#3C3C3C"/>
</svg>
