<svg width="129" height="128" viewBox="0 0 129 128" fill="none" xmlns="http://www.w3.org/2000/svg">
<g clip-path="url(#clip0_6_3875)">
<path d="M103.7 53.5467C100.073 35.1467 83.9133 21.3334 64.5 21.3334C49.0867 21.3334 35.7 30.08 29.0333 42.88C12.98 44.5867 0.5 58.1867 0.5 74.6667C0.5 92.32 14.8467 106.667 32.5 106.667H101.833C116.553 106.667 128.5 94.72 128.5 80C128.5 65.92 117.567 54.5067 103.7 53.5467ZM101.833 96H32.5C20.7133 96 11.1667 86.4534 11.1667 74.6667C11.1667 63.7334 19.3267 54.6134 30.1533 53.4934L35.86 52.9067L38.5267 47.84C43.5933 38.08 53.5133 32 64.5 32C78.4733 32 90.5267 41.92 93.2467 55.6267L94.8467 63.6267L103.007 64.2134C111.327 64.7467 117.833 71.7334 117.833 80C117.833 88.8 110.633 96 101.833 96ZM43.1667 69.3334H56.7667V85.3334H72.2333V69.3334H85.8333L64.5 48L43.1667 69.3334Z" fill="#7E22CE"/>
</g>
<defs>
<clipPath id="clip0_6_3875">
<rect width="128" height="128" fill="white" transform="translate(0.5)"/>
</clipPath>
</defs>
</svg>
