<svg width="26" height="26" viewBox="0 0 26 26" fill="none" xmlns="http://www.w3.org/2000/svg">
<path d="M12.6668 2.1333L13.5345 1.12096C13.0352 0.69297 12.2984 0.69297 11.7991 1.12096L12.6668 2.1333ZM1.4668 11.7333L0.599075 10.721L0.133464 11.1201V11.7333H1.4668ZM9.4668 24.5333V25.8666C10.2032 25.8666 10.8001 25.2697 10.8001 24.5333H9.4668ZM15.8668 24.5333H14.5335C14.5335 25.2697 15.1304 25.8666 15.8668 25.8666V24.5333ZM23.8668 11.7333H25.2001V11.1201L24.7345 10.721L23.8668 11.7333ZM3.0668 25.8666H9.4668V23.2H3.0668V25.8666ZM24.7345 10.721L13.5345 1.12096L11.7991 3.14564L22.9991 12.7456L24.7345 10.721ZM11.7991 1.12096L0.599075 10.721L2.33452 12.7456L13.5345 3.14564L11.7991 1.12096ZM10.8001 24.5333V19.7333H8.13346V24.5333H10.8001ZM14.5335 19.7333V24.5333H17.2001V19.7333H14.5335ZM15.8668 25.8666H22.2668V23.2H15.8668V25.8666ZM25.2001 22.9333V11.7333H22.5335V22.9333H25.2001ZM0.133464 11.7333V22.9333H2.80013V11.7333H0.133464ZM12.6668 17.8666C13.6977 17.8666 14.5335 18.7024 14.5335 19.7333H17.2001C17.2001 17.2296 15.1705 15.2 12.6668 15.2V17.8666ZM12.6668 15.2C10.1631 15.2 8.13346 17.2296 8.13346 19.7333H10.8001C10.8001 18.7024 11.6359 17.8666 12.6668 17.8666V15.2ZM22.2668 25.8666C23.8868 25.8666 25.2001 24.5533 25.2001 22.9333H22.5335C22.5335 23.0806 22.4141 23.2 22.2668 23.2V25.8666ZM3.0668 23.2C2.91952 23.2 2.80013 23.0806 2.80013 22.9333H0.133464C0.133464 24.5533 1.44676 25.8666 3.0668 25.8666V23.2Z" fill="#999999"/>
</svg>
