<svg width="58" height="59" viewBox="0 0 58 59" fill="none" xmlns="http://www.w3.org/2000/svg">
<path d="M29.0163 55.7021C14.5637 55.7021 2.85059 43.989 2.85059 29.5364C2.85059 15.0838 14.5673 3.37073 29.0163 3.37073C43.4653 3.37073 55.182 15.0838 55.182 29.5364" stroke="white" stroke-width="5.04403" stroke-miterlimit="10"/>
<path d="M18.6191 41.9759H21.8548C24.6339 41.9759 26.888 39.7217 26.888 36.9426V31.1436C26.888 28.3645 29.1422 26.1104 31.9213 26.1104H32.2808C35.0599 26.1104 37.3141 28.3645 37.3141 31.1436V50.6043C37.3141 53.3834 39.5682 55.6375 42.3473 55.6375C45.1264 55.6375 47.3806 53.3834 47.3806 50.6043V44.4925C47.3806 41.7134 49.6347 39.4592 52.4138 39.4592H57.4471" stroke="white" stroke-width="5.04403" stroke-miterlimit="10"/>
</svg>
