<svg width="44" height="52" viewBox="0 0 44 52" fill="none" xmlns="http://www.w3.org/2000/svg">
<path d="M21.9998 52C24.9332 52 27.3332 49.6 27.3332 46.6667H16.6665C16.6665 49.6 19.0665 52 21.9998 52ZM37.9998 36V22.6667C37.9998 14.48 33.6532 7.62667 25.9998 5.81333V4C25.9998 1.78667 24.2132 0 21.9998 0C19.7865 0 17.9998 1.78667 17.9998 4V5.81333C10.3732 7.62667 5.99984 14.4533 5.99984 22.6667V36L0.666504 41.3333V44H43.3332V41.3333L37.9998 36ZM32.6665 38.6667H11.3332V22.6667C11.3332 16.0533 15.3598 10.6667 21.9998 10.6667C28.6398 10.6667 32.6665 16.0533 32.6665 22.6667V38.6667Z" fill="#3C3C3C"/>
</svg>
