<svg width="36" height="35" viewBox="0 0 36 35" fill="none" xmlns="http://www.w3.org/2000/svg">
<path d="M16.2235 25.9345H19.6529V19.0765H26.5115V15.6475H19.6529V8.78953H16.2235V15.6475H9.36485V19.0765H16.2235V25.9345ZM17.9382 34.507C15.5662 34.507 13.3372 34.0567 11.251 33.156C9.16481 32.2553 7.35012 31.034 5.80691 29.4921C4.26371 27.9491 3.04229 26.1345 2.14266 24.0486C1.24303 21.9626 0.792647 19.7337 0.791504 17.362C0.791504 14.9903 1.24189 12.7615 2.14266 10.6755C3.04344 8.58951 4.26485 6.775 5.80691 5.23195C7.35012 3.6889 9.16481 2.46761 11.251 1.56807C13.3372 0.668526 15.5662 0.218184 17.9382 0.217041C20.3102 0.217041 22.5392 0.667383 24.6254 1.56807C26.7116 2.46875 28.5263 3.69004 30.0695 5.23195C31.6127 6.775 32.8347 8.58951 33.7355 10.6755C34.6362 12.7615 35.086 14.9903 35.0849 17.362C35.0849 19.7337 34.6345 21.9626 33.7337 24.0486C32.833 26.1345 31.6116 27.9491 30.0695 29.4921C28.5263 31.0352 26.7116 32.257 24.6254 33.1577C22.5392 34.0584 20.3102 34.5082 17.9382 34.507Z" fill="#F8F8F8"/>
</svg>
