<svg width="46" height="48" viewBox="0 0 46 48" fill="none" xmlns="http://www.w3.org/2000/svg">
<path fill-rule="evenodd" clip-rule="evenodd" d="M30.4483 44.3175C30.2233 45.8475 28.8283 47.0625 27.1633 47.0625H18.8383C17.1733 47.0625 15.7783 45.8475 15.5758 44.205L14.9683 39.9525C14.3608 39.6375 13.7758 39.3 13.1908 38.9175L9.14077 40.5375C7.56577 41.1225 5.83327 40.47 5.06827 39.075L0.950771 31.9425C0.163271 30.4575 0.500771 28.7025 1.76077 27.7125L5.20327 25.035C5.18077 24.6975 5.15827 24.36 5.15827 24C5.15827 23.6625 5.18077 23.3025 5.20327 22.965L1.78327 20.2875C0.455771 19.275 0.118271 17.4525 0.950771 16.0575L5.11327 8.87996C5.87827 7.48496 7.61077 6.85496 9.14077 7.46246L13.2133 9.10496C13.7983 8.72246 14.3833 8.38496 14.9683 8.06996L15.5758 3.77246C15.7783 2.19746 17.1733 0.959961 18.8158 0.959961H27.1408C28.8058 0.959961 30.2008 2.17496 30.4033 3.81746L31.0108 8.06996C31.6183 8.38496 32.2033 8.72246 32.7883 9.10496L36.8383 7.48496C38.4358 6.89996 40.1683 7.55246 40.9333 8.94746L45.0733 16.1025C45.8833 17.5875 45.5233 19.3425 44.2633 20.3325L40.8433 23.01C40.8658 23.3475 40.8883 23.685 40.8883 24.045C40.8883 24.405 40.8658 24.7425 40.8433 25.08L44.2633 27.7575C45.5233 28.77 45.8833 30.525 45.0958 31.9425L40.9108 39.1875C40.1458 40.5825 38.4133 41.2125 36.8608 40.605L32.8108 38.985C32.2258 39.3675 31.6408 39.705 31.0558 40.02L30.4483 44.3175ZM19.8958 42.5625H26.1058L26.9383 36.825L28.1308 36.33C29.1208 35.925 30.1108 35.34 31.1458 34.575L32.1583 33.81L37.5133 35.97L40.6183 30.57L36.0508 27.015L36.2083 25.755L36.2153 25.6944C36.2804 25.1311 36.3433 24.5865 36.3433 24C36.3433 23.3925 36.2758 22.8075 36.2083 22.245L36.0508 20.985L40.6183 17.43L37.4908 12.03L32.1133 14.19L31.1008 13.4025C30.1558 12.6825 29.1433 12.0975 28.1083 11.67L26.9383 11.175L26.1058 5.43746H19.8958L19.0633 11.175L17.8708 11.6475C16.8808 12.075 15.8908 12.6375 14.8558 13.425L13.8433 14.1675L8.48827 12.03L5.36077 17.4075L9.92827 20.9625L9.77077 22.2225C9.70327 22.8075 9.63577 23.415 9.63577 24C9.63577 24.585 9.68077 25.1925 9.77077 25.755L9.92827 27.015L5.36077 30.57L8.46577 35.97L13.8433 33.81L14.8558 34.5975C15.8233 35.34 16.7908 35.9025 17.8483 36.33L19.0408 36.825L19.8958 42.5625ZM30.8758 24C30.8758 28.3492 27.35 31.875 23.0008 31.875C18.6515 31.875 15.1258 28.3492 15.1258 24C15.1258 19.6507 18.6515 16.125 23.0008 16.125C27.35 16.125 30.8758 19.6507 30.8758 24Z" fill="#3C3C3C"/>
</svg>
