<svg width="60" height="60" viewBox="0 0 60 60" fill="none" xmlns="http://www.w3.org/2000/svg">
<path d="M25.1109 39.7775H34.8887C36.2331 39.7775 37.3331 38.6775 37.3331 37.3331V25.1108H41.2198C43.3953 25.1108 44.4953 22.4708 42.9553 20.9308L31.7353 9.71083C31.5092 9.48423 31.2406 9.30444 30.9449 9.18178C30.6492 9.05911 30.3321 8.99597 30.012 8.99597C29.6919 8.99597 29.3749 9.05911 29.0791 9.18178C28.7834 9.30444 28.5148 9.48423 28.2887 9.71083L17.0687 20.9308C15.5287 22.4708 16.6042 25.1108 18.7798 25.1108H22.6664V37.3331C22.6664 38.6775 23.7664 39.7775 25.1109 39.7775ZM15.3331 44.6664H44.6664C46.0109 44.6664 47.1109 45.7664 47.1109 47.1108C47.1109 48.4553 46.0109 49.5553 44.6664 49.5553H15.3331C13.9887 49.5553 12.8887 48.4553 12.8887 47.1108C12.8887 45.7664 13.9887 44.6664 15.3331 44.6664Z" fill="#7E22CE"/>
</svg>
